<?xml version="1.0" encoding="utf-8"?>
<!-- Generator: Adobe Illustrator 18.1.1, SVG Export Plug-In . SVG Version: 6.00 Build 0)  -->
<svg version="1.1" id="Layer_2" xmlns="http://www.w3.org/2000/svg" xmlns:xlink="http://www.w3.org/1999/xlink" x="0px" y="0px"
	 viewBox="0 0 960 560" enable-background="new 0 0 960 560" xml:space="preserve">
<g>
	<g>
		<path fill="#D15C20" d="M554,307.1c0,3.5,1,6.1,3,7.7c2,1.6,5,2.4,8.9,2.5v7.3c-6.6-0.1-11.7-1.6-15.3-4.5
			c-3.6-2.9-5.4-7.1-5.4-12.4v-15.7c0-3.6-1.1-6.2-3.3-7.7c-2.2-1.5-5.4-2.3-9.5-2.3v-7.3c4.5-0.1,7.8-0.9,9.8-2.5
			c2-1.6,3-4.1,3-7.4v-15.9c0-5.4,1.9-9.5,5.6-12.5c3.7-3,8.8-4.5,15.1-4.5v7.2c-8,0.2-12,3.7-12,10.3v15.3
			c0,7.4-3.9,11.8-11.6,13.2v0.6c7.7,1.4,11.6,5.8,11.6,13.2V307.1z"/>
		<path d="M575.4,249.9c0-1.6,0.4-2.7,1.2-3.5s1.7-1.1,2.9-1.1c1.1,0,2.1,0.4,2.9,1.1c0.8,0.7,1.2,1.9,1.2,3.4s-0.4,2.7-1.2,3.5
			s-1.8,1.1-2.9,1.1c-1.2,0-2.1-0.4-2.9-1.1S575.4,251.4,575.4,249.9z M582.9,307.8H576v-45.6h6.9V307.8z"/>
		<path d="M611.9,302.9c1.2,0,2.4-0.1,3.5-0.3s2-0.4,2.7-0.6v5.3c-0.7,0.4-1.8,0.7-3.3,0.9c-1.5,0.2-2.8,0.4-3.9,0.4
			c-8.8,0-13.2-4.6-13.2-13.9v-27.1h-6.5v-3.3l6.5-2.9l2.9-9.7h4v10.6h13.2v5.4h-13.2v26.8c0,2.7,0.7,4.8,2,6.3
			C607.8,302.2,609.6,302.9,611.9,302.9z"/>
		<path fill="#0E6882" d="M645.7,277.9c-7.7-1.4-11.6-5.7-11.6-13.2v-15.3c0-6.7-3.9-10.1-11.8-10.3v-7.2c6.4,0,11.4,1.5,15,4.5
			c3.7,3,5.5,7.2,5.5,12.5v15.9c0,3.4,1,5.8,3.1,7.4c2,1.6,5.3,2.4,9.8,2.5v7.3c-4.2,0-7.4,0.8-9.6,2.3c-2.2,1.5-3.3,4.1-3.3,7.7
			v15.7c0,5.3-1.8,9.4-5.3,12.4c-3.6,3-8.6,4.5-15.2,4.5v-7.3c3.8-0.1,6.8-0.9,8.8-2.5c2-1.6,3-4.2,3-7.7v-15.4c0-3.9,1-7,2.9-9
			c1.9-2.1,4.8-3.5,8.7-4.2V277.9z"/>
	</g>
	<g>
		<path d="M336.3,296c0,4-1.5,7.2-4.6,9.3c-3.1,2.2-7.4,3.3-13.1,3.3c-6,0-10.8-0.9-14.4-2.8v-4.4c4.5,2.3,9.3,3.4,14.4,3.4
			c4.5,0,7.8-0.7,10.2-2.2c2.3-1.5,3.5-3.5,3.5-5.9c0-2.3-0.9-4.2-2.8-5.7c-1.8-1.6-4.9-3.1-9.1-4.6c-4.5-1.6-7.7-3-9.5-4.2
			s-3.2-2.5-4.1-4c-0.9-1.5-1.4-3.3-1.4-5.4c0-3.4,1.4-6.1,4.3-8c2.8-2,6.8-3,11.9-3c4.9,0,9.5,0.9,13.9,2.7l-1.5,3.7
			c-4.4-1.8-8.6-2.7-12.3-2.7c-3.7,0-6.6,0.6-8.8,1.8c-2.2,1.2-3.2,2.9-3.2,5.1c0,2.4,0.8,4.2,2.5,5.7c1.7,1.4,5,3,9.8,4.7
			c4.1,1.5,7,2.8,8.9,4c1.9,1.2,3.2,2.5,4.2,4C335.9,292.2,336.3,294,336.3,296z"/>
		<path d="M356.5,304.9c2.6,0,4.9-0.2,6.8-0.7v3.3c-2,0.7-4.3,1-6.9,1c-4,0-6.9-1.1-8.8-3.2s-2.8-5.5-2.8-10.1v-29.2H338v-2.4
			l6.7-1.9l2.1-10.2h2.1v10.9h13.3v3.6h-13.3v28.6c0,3.5,0.6,6,1.8,7.7C352,304.1,353.9,304.9,356.5,304.9z"/>
		<path d="M397.1,307.8l-1-7.1h-0.3c-2.3,2.9-4.6,5-7,6.2c-2.4,1.2-5.2,1.8-8.5,1.8c-4.4,0-7.9-1.1-10.4-3.4
			c-2.5-2.3-3.7-5.4-3.7-9.4c0-4.4,1.8-7.8,5.5-10.3c3.7-2.4,9-3.7,15.9-3.9l8.6-0.2v-3c0-4.3-0.9-7.5-2.6-9.7
			c-1.7-2.2-4.6-3.3-8.4-3.3c-4.2,0-8.5,1.2-13,3.5l-1.5-3.6c5-2.3,9.9-3.5,14.7-3.5c5,0,8.7,1.3,11.1,3.9c2.5,2.6,3.7,6.6,3.7,12.1
			v30.1H397.1z M380.5,304.8c4.8,0,8.6-1.4,11.4-4.1c2.8-2.8,4.2-6.6,4.2-11.5v-4.4l-7.9,0.3c-6.3,0.3-10.9,1.3-13.6,3
			c-2.7,1.7-4.1,4.3-4.1,7.8c0,2.8,0.9,5,2.6,6.6C374.9,304.1,377.3,304.8,380.5,304.8z"/>
		<path d="M467.8,307.8v-29.6c0-4.4-0.9-7.6-2.6-9.6c-1.7-2-4.3-3-7.9-3c-4.6,0-8,1.3-10.3,3.8s-3.3,6.6-3.3,12v26.5h-4.2v-30.9
			c0-7.6-3.5-11.4-10.5-11.4c-4.7,0-8.2,1.4-10.4,4.1c-2.2,2.8-3.2,7.2-3.2,13.2v24.9h-4.1v-45.2h3.4l0.9,6.2h0.2
			c1.2-2.2,3-4,5.3-5.2c2.3-1.2,4.8-1.8,7.6-1.8c7.1,0,11.7,2.7,13.7,8h0.2c1.5-2.6,3.4-4.6,5.9-5.9s5.3-2.1,8.5-2.1
			c4.9,0,8.6,1.3,11.1,3.9c2.5,2.6,3.7,6.8,3.7,12.6v29.6H467.8z"/>
		<path d="M502.4,308.6c-7,0-12-2.6-15.2-7.8h-0.3l0.1,3.5c0.1,2.1,0.2,4.3,0.2,6.7v17.2h-4.1v-65.6h3.5l0.8,6.4h0.2
			c3.1-4.9,8.1-7.3,14.9-7.3c6.1,0,10.7,2,13.9,6s4.8,9.8,4.8,17.5c0,7.4-1.7,13.2-5.1,17.3S508.3,308.6,502.4,308.6z M502.4,304.9
			c4.6,0,8.2-1.7,10.7-5.2c2.5-3.4,3.8-8.2,3.8-14.4c0-13.3-4.8-19.9-14.4-19.9c-5.3,0-9.1,1.4-11.6,4.3c-2.5,2.9-3.7,7.6-3.7,14.2
			v1.3c0,7.1,1.2,12.1,3.6,15.1C493.2,303.4,497,304.9,502.4,304.9z"/>
	</g>
</g>
</svg>
